<svg xmlns="http://www.w3.org/2000/svg" xmlns:xlink="http://www.w3.org/1999/xlink" width="500" zoomAndPan="magnify" viewBox="0 0 375 299.999988" height="400" preserveAspectRatio="xMidYMid meet" version="1.0"><defs><g/><clipPath id="a21e7cb1b2"><path d="M 85 12.648438 L 256 12.648438 L 256 163 L 85 163 Z M 85 12.648438 " clip-rule="nonzero"/></clipPath><clipPath id="695ef083ac"><path d="M 168 12.648438 L 363.183594 12.648438 L 363.183594 202 L 168 202 Z M 168 12.648438 " clip-rule="nonzero"/></clipPath><clipPath id="66fede306c"><path d="M 2.300781 17 L 198 17 L 198 207 L 2.300781 207 Z M 2.300781 17 " clip-rule="nonzero"/></clipPath></defs><path fill="#000000" d="M 265.378906 192.238281 L 251.542969 192.238281 L 109.074219 49.773438 L 109.074219 70.613281 L 230.699219 192.238281 L 245.4375 206.980469 L 280.117188 206.980469 L 280.117188 142.003906 L 265.378906 127.261719 Z M 265.378906 192.238281 " fill-opacity="1" fill-rule="nonzero"/><g clip-path="url(#a21e7cb1b2)"><path fill="#000000" d="M 100.570312 27.429688 L 120.835938 27.429688 L 255.933594 162.511719 L 255.933594 141.671875 L 126.953125 12.691406 L 85.832031 12.691406 L 85.832031 72.796875 L 100.570312 87.535156 Z M 100.570312 27.429688 " fill-opacity="1" fill-rule="nonzero"/></g><g clip-path="url(#695ef083ac)"><path fill="#000000" d="M 337.664062 189.617188 C 330.148438 189.617188 324.058594 183.527344 324.058594 176.011719 C 324.058594 173.722656 324.625 171.570312 325.621094 169.675781 C 327.898438 165.355469 332.4375 162.410156 337.660156 162.410156 C 338 162.410156 338.332031 162.421875 338.664062 162.449219 C 345.707031 162.960938 351.265625 168.839844 351.265625 176.015625 C 351.265625 183.527344 345.175781 189.617188 337.660156 189.617188 Z M 328.480469 151.695312 L 265.378906 88.59375 L 204.226562 27.429688 L 265.378906 27.429688 L 265.378906 75.640625 L 280.117188 90.363281 L 280.117188 12.691406 L 168.648438 12.691406 L 183.386719 27.429688 L 265.378906 109.4375 L 316.65625 160.710938 C 313.523438 165.003906 311.675781 170.292969 311.675781 176.011719 C 311.675781 190.363281 323.308594 202 337.660156 202 C 352.011719 202 363.644531 190.363281 363.644531 176.011719 C 363.644531 161.660156 352.011719 150.027344 337.660156 150.027344 C 334.429688 150.027344 331.335938 150.617188 328.476562 151.695312 Z M 328.480469 151.695312 " fill-opacity="1" fill-rule="evenodd"/></g><g clip-path="url(#66fede306c)"><path fill="#000000" d="M 28.289062 30.050781 C 35.800781 30.050781 41.890625 36.140625 41.890625 43.65625 C 41.890625 45.945312 41.324219 48.101562 40.328125 49.992188 C 38.050781 54.3125 33.511719 57.257812 28.289062 57.257812 C 27.949219 57.257812 27.617188 57.246094 27.285156 57.21875 C 20.242188 56.707031 14.6875 50.828125 14.6875 43.652344 C 14.6875 36.140625 20.777344 30.050781 28.289062 30.050781 Z M 37.46875 67.972656 L 100.570312 131.074219 L 161.722656 192.238281 L 100.570312 192.238281 L 100.570312 144.027344 L 85.832031 129.304688 L 85.832031 206.980469 L 197.300781 206.980469 L 182.5625 192.238281 L 100.570312 110.234375 L 49.292969 58.957031 C 52.425781 54.664062 54.273438 49.375 54.273438 43.65625 C 54.273438 29.304688 42.640625 17.671875 28.289062 17.671875 C 13.9375 17.671875 2.304688 29.304688 2.304688 43.65625 C 2.304688 58.007812 13.9375 69.640625 28.289062 69.640625 C 31.519531 69.640625 34.617188 69.050781 37.472656 67.972656 Z M 37.46875 67.972656 " fill-opacity="1" fill-rule="evenodd"/></g><g fill="#345db8" fill-opacity="1"><g transform="translate(6.937664, 250.864662)"><g><path d="M 4.0625 0 L 4.0625 -33.8125 L 10.578125 -33.8125 L 25.5 -13.234375 L 25.5 -33.8125 L 33.125 -33.8125 L 33.125 0 L 26.609375 0 L 11.6875 -20.71875 L 11.6875 0 Z M 4.0625 0 "/></g></g></g><g fill="#345db8" fill-opacity="1"><g transform="translate(42.921471, 250.864662)"><g><path d="M 20.09375 0.671875 C 16.582031 0.671875 13.46875 -0.0703125 10.75 -1.5625 C 8.03125 -3.0625 5.90625 -5.128906 4.375 -7.765625 C 2.84375 -10.410156 2.078125 -13.457031 2.078125 -16.90625 C 2.078125 -20.351562 2.84375 -23.394531 4.375 -26.03125 C 5.90625 -28.675781 8.03125 -30.742188 10.75 -32.234375 C 13.46875 -33.734375 16.582031 -34.484375 20.09375 -34.484375 C 23.632812 -34.484375 26.753906 -33.734375 29.453125 -32.234375 C 32.160156 -30.742188 34.285156 -28.675781 35.828125 -26.03125 C 37.378906 -23.394531 38.15625 -20.351562 38.15625 -16.90625 C 38.15625 -13.457031 37.378906 -10.410156 35.828125 -7.765625 C 34.285156 -5.128906 32.160156 -3.0625 29.453125 -1.5625 C 26.753906 -0.0703125 23.632812 0.671875 20.09375 0.671875 Z M 9.90625 -16.90625 C 9.90625 -14.875 10.335938 -13.082031 11.203125 -11.53125 C 12.078125 -9.988281 13.273438 -8.78125 14.796875 -7.90625 C 16.328125 -7.039062 18.09375 -6.609375 20.09375 -6.609375 C 22.125 -6.609375 23.898438 -7.039062 25.421875 -7.90625 C 26.953125 -8.78125 28.144531 -9.988281 29 -11.53125 C 29.851562 -13.082031 30.28125 -14.875 30.28125 -16.90625 C 30.28125 -18.9375 29.851562 -20.722656 29 -22.265625 C 28.144531 -23.804688 26.953125 -25.007812 25.421875 -25.875 C 23.898438 -26.75 22.125 -27.1875 20.09375 -27.1875 C 18.09375 -27.1875 16.328125 -26.75 14.796875 -25.875 C 13.273438 -25.007812 12.078125 -23.804688 11.203125 -22.265625 C 10.335938 -20.722656 9.90625 -18.9375 9.90625 -16.90625 Z M 9.90625 -16.90625 "/></g></g></g><g fill="#345db8" fill-opacity="1"><g transform="translate(81.948227, 250.864662)"><g><path d="M 4.0625 0 L 4.0625 -33.8125 L 17.4375 -33.8125 C 21.007812 -33.8125 24.128906 -33.101562 26.796875 -31.6875 C 29.472656 -30.269531 31.550781 -28.285156 33.03125 -25.734375 C 34.507812 -23.191406 35.25 -20.25 35.25 -16.90625 C 35.25 -13.519531 34.507812 -10.5625 33.03125 -8.03125 C 31.550781 -5.507812 29.472656 -3.539062 26.796875 -2.125 C 24.128906 -0.707031 21.007812 0 17.4375 0 Z M 11.734375 -7.046875 L 17.296875 -7.046875 C 19.285156 -7.046875 21.035156 -7.457031 22.546875 -8.28125 C 24.066406 -9.101562 25.253906 -10.253906 26.109375 -11.734375 C 26.960938 -13.210938 27.390625 -14.9375 27.390625 -16.90625 C 27.390625 -18.894531 26.960938 -20.625 26.109375 -22.09375 C 25.253906 -23.5625 24.0625 -24.703125 22.53125 -25.515625 C 21 -26.335938 19.21875 -26.75 17.1875 -26.75 L 11.734375 -26.75 Z M 11.734375 -7.046875 "/></g></g></g><g fill="#345db8" fill-opacity="1"><g transform="translate(118.028634, 250.864662)"><g><path d="M 4.0625 0 L 4.0625 -33.8125 L 26.28125 -33.8125 L 26.28125 -27.34375 L 11.6875 -27.34375 L 11.6875 -20.328125 L 24.96875 -20.328125 L 24.96875 -13.90625 L 11.6875 -13.90625 L 11.6875 -6.515625 L 26.8125 -6.515625 L 26.8125 0 Z M 4.0625 0 "/></g></g></g><g fill="#345db8" fill-opacity="1"><g transform="translate(146.09113, 250.864662)"><g><path d="M 12.171875 0 L 12.171875 -26.609375 L 1.453125 -26.609375 L 1.453125 -33.8125 L 30.578125 -33.8125 L 30.578125 -26.609375 L 19.84375 -26.609375 L 19.84375 0 Z M 12.171875 0 "/></g></g></g><g fill="#345db8" fill-opacity="1"><g transform="translate(176.906773, 250.864662)"><g><path d="M 4.0625 0 L 4.0625 -33.8125 L 18.5 -33.8125 C 21.070312 -33.8125 23.304688 -33.34375 25.203125 -32.40625 C 27.109375 -31.46875 28.578125 -30.128906 29.609375 -28.390625 C 30.640625 -26.660156 31.15625 -24.585938 31.15625 -22.171875 C 31.15625 -19.691406 30.585938 -17.554688 29.453125 -15.765625 C 28.328125 -13.984375 26.753906 -12.640625 24.734375 -11.734375 L 31.734375 0 L 22.84375 0 L 16.8125 -10.53125 L 11.734375 -10.53125 L 11.734375 0 Z M 11.640625 -17 L 17.484375 -17 C 19.378906 -17 20.832031 -17.441406 21.84375 -18.328125 C 22.863281 -19.210938 23.375 -20.476562 23.375 -22.125 C 23.375 -23.757812 22.863281 -25.019531 21.84375 -25.90625 C 20.832031 -26.789062 19.378906 -27.234375 17.484375 -27.234375 L 11.640625 -27.234375 Z M 11.640625 -17 "/></g></g></g><g fill="#345db8" fill-opacity="1"><g transform="translate(209.702734, 250.864662)"><g><path d="M 20.09375 0.671875 C 16.582031 0.671875 13.46875 -0.0703125 10.75 -1.5625 C 8.03125 -3.0625 5.90625 -5.128906 4.375 -7.765625 C 2.84375 -10.410156 2.078125 -13.457031 2.078125 -16.90625 C 2.078125 -20.351562 2.84375 -23.394531 4.375 -26.03125 C 5.90625 -28.675781 8.03125 -30.742188 10.75 -32.234375 C 13.46875 -33.734375 16.582031 -34.484375 20.09375 -34.484375 C 23.632812 -34.484375 26.753906 -33.734375 29.453125 -32.234375 C 32.160156 -30.742188 34.285156 -28.675781 35.828125 -26.03125 C 37.378906 -23.394531 38.15625 -20.351562 38.15625 -16.90625 C 38.15625 -13.457031 37.378906 -10.410156 35.828125 -7.765625 C 34.285156 -5.128906 32.160156 -3.0625 29.453125 -1.5625 C 26.753906 -0.0703125 23.632812 0.671875 20.09375 0.671875 Z M 9.90625 -16.90625 C 9.90625 -14.875 10.335938 -13.082031 11.203125 -11.53125 C 12.078125 -9.988281 13.273438 -8.78125 14.796875 -7.90625 C 16.328125 -7.039062 18.09375 -6.609375 20.09375 -6.609375 C 22.125 -6.609375 23.898438 -7.039062 25.421875 -7.90625 C 26.953125 -8.78125 28.144531 -9.988281 29 -11.53125 C 29.851562 -13.082031 30.28125 -14.875 30.28125 -16.90625 C 30.28125 -18.9375 29.851562 -20.722656 29 -22.265625 C 28.144531 -23.804688 26.953125 -25.007812 25.421875 -25.875 C 23.898438 -26.75 22.125 -27.1875 20.09375 -27.1875 C 18.09375 -27.1875 16.328125 -26.75 14.796875 -25.875 C 13.273438 -25.007812 12.078125 -23.804688 11.203125 -22.265625 C 10.335938 -20.722656 9.90625 -18.9375 9.90625 -16.90625 Z M 9.90625 -16.90625 "/></g></g></g><g fill="#345db8" fill-opacity="1"><g transform="translate(248.72949, 250.864662)"><g><path d="M 4.0625 0 L 4.0625 -33.8125 L 10.578125 -33.8125 L 25.5 -13.234375 L 25.5 -33.8125 L 33.125 -33.8125 L 33.125 0 L 26.609375 0 L 11.6875 -20.71875 L 11.6875 0 Z M 4.0625 0 "/></g></g></g><g fill="#345db8" fill-opacity="1"><g transform="translate(284.713295, 250.864662)"><g><path d="M 4.0625 0 L 4.0625 -33.8125 L 11.734375 -33.8125 L 11.734375 0 Z M 4.0625 0 "/></g></g></g><g fill="#345db8" fill-opacity="1"><g transform="translate(299.299915, 250.864662)"><g><path d="M 19.5625 0.671875 C 16.144531 0.671875 13.113281 -0.0703125 10.46875 -1.5625 C 7.832031 -3.0625 5.773438 -5.128906 4.296875 -7.765625 C 2.816406 -10.410156 2.078125 -13.457031 2.078125 -16.90625 C 2.078125 -20.351562 2.816406 -23.394531 4.296875 -26.03125 C 5.773438 -28.675781 7.828125 -30.742188 10.453125 -32.234375 C 13.078125 -33.734375 16.097656 -34.484375 19.515625 -34.484375 C 22.378906 -34.484375 25 -33.9375 27.375 -32.84375 C 29.757812 -31.75 31.765625 -30.203125 33.390625 -28.203125 C 35.023438 -26.210938 36.160156 -23.863281 36.796875 -21.15625 L 28.875 -21.15625 C 28.238281 -23.019531 27.097656 -24.488281 25.453125 -25.5625 C 23.804688 -26.644531 21.90625 -27.1875 19.75 -27.1875 C 17.851562 -27.1875 16.15625 -26.75 14.65625 -25.875 C 13.15625 -25.007812 11.988281 -23.804688 11.15625 -22.265625 C 10.320312 -20.722656 9.90625 -18.9375 9.90625 -16.90625 C 9.90625 -14.875 10.320312 -13.082031 11.15625 -11.53125 C 11.988281 -9.988281 13.144531 -8.78125 14.625 -7.90625 C 16.113281 -7.039062 17.804688 -6.609375 19.703125 -6.609375 C 21.921875 -6.609375 23.867188 -7.179688 25.546875 -8.328125 C 27.222656 -9.472656 28.414062 -11.007812 29.125 -12.9375 L 37.046875 -12.9375 C 36.492188 -10.207031 35.394531 -7.816406 33.75 -5.765625 C 32.113281 -3.722656 30.078125 -2.140625 27.640625 -1.015625 C 25.210938 0.109375 22.519531 0.671875 19.5625 0.671875 Z M 19.5625 0.671875 "/></g></g></g><g fill="#345db8" fill-opacity="1"><g transform="translate(337.070871, 250.864662)"><g><path d="M 15.84375 0.671875 C 13.007812 0.671875 10.566406 0.207031 8.515625 -0.71875 C 6.472656 -1.65625 4.894531 -2.984375 3.78125 -4.703125 C 2.675781 -6.429688 2.125 -8.453125 2.125 -10.765625 L 9.65625 -10.765625 C 9.65625 -9.160156 10.207031 -7.90625 11.3125 -7 C 12.425781 -6.101562 13.921875 -5.65625 15.796875 -5.65625 C 17.398438 -5.65625 18.671875 -5.96875 19.609375 -6.59375 C 20.546875 -7.21875 21.015625 -8.09375 21.015625 -9.21875 C 21.015625 -10.414062 20.445312 -11.382812 19.3125 -12.125 C 18.1875 -12.863281 16.429688 -13.488281 14.046875 -14 C 10.085938 -14.84375 7.160156 -16.113281 5.265625 -17.8125 C 3.367188 -19.519531 2.421875 -21.742188 2.421875 -24.484375 C 2.421875 -27.578125 3.546875 -30.015625 5.796875 -31.796875 C 8.046875 -33.585938 11.117188 -34.484375 15.015625 -34.484375 C 17.691406 -34.484375 20.007812 -34.023438 21.96875 -33.109375 C 23.9375 -32.191406 25.457031 -30.898438 26.53125 -29.234375 C 27.613281 -27.578125 28.15625 -25.609375 28.15625 -23.328125 L 20.765625 -23.328125 C 20.765625 -24.835938 20.265625 -26.023438 19.265625 -26.890625 C 18.265625 -27.765625 16.878906 -28.203125 15.109375 -28.203125 C 13.503906 -28.203125 12.234375 -27.890625 11.296875 -27.265625 C 10.367188 -26.640625 9.90625 -25.757812 9.90625 -24.625 C 9.90625 -23.59375 10.414062 -22.722656 11.4375 -22.015625 C 12.46875 -21.304688 14.273438 -20.648438 16.859375 -20.046875 C 21.078125 -19.046875 24.117188 -17.707031 25.984375 -16.03125 C 27.847656 -14.351562 28.78125 -12.179688 28.78125 -9.515625 C 28.78125 -6.328125 27.628906 -3.832031 25.328125 -2.03125 C 23.023438 -0.226562 19.863281 0.671875 15.84375 0.671875 Z M 15.84375 0.671875 "/></g></g></g><g fill="#000000" fill-opacity="1"><g transform="translate(74.316889, 285.434834)"><g><path d="M 7.578125 0 L 7.578125 -16.5625 L 0.90625 -16.5625 L 0.90625 -21.03125 L 19.015625 -21.03125 L 19.015625 -16.5625 L 12.34375 -16.5625 L 12.34375 0 Z M 7.578125 0 "/></g></g></g><g fill="#000000" fill-opacity="1"><g transform="translate(94.830854, 285.434834)"><g><path d="M 2.53125 0 L 2.53125 -21.03125 L 16.34375 -21.03125 L 16.34375 -17 L 7.265625 -17 L 7.265625 -12.65625 L 15.53125 -12.65625 L 15.53125 -8.65625 L 7.265625 -8.65625 L 7.265625 -4.0625 L 16.671875 -4.0625 L 16.671875 0 Z M 2.53125 0 "/></g></g></g><g fill="#000000" fill-opacity="1"><g transform="translate(113.632871, 285.434834)"><g><path d="M 12.171875 0.421875 C 10.046875 0.421875 8.160156 -0.0390625 6.515625 -0.96875 C 4.878906 -1.90625 3.597656 -3.191406 2.671875 -4.828125 C 1.753906 -6.472656 1.296875 -8.367188 1.296875 -10.515625 C 1.296875 -12.660156 1.753906 -14.550781 2.671875 -16.1875 C 3.597656 -17.832031 4.875 -19.117188 6.5 -20.046875 C 8.132812 -20.984375 10.015625 -21.453125 12.140625 -21.453125 C 13.921875 -21.453125 15.550781 -21.109375 17.03125 -20.421875 C 18.519531 -19.742188 19.769531 -18.785156 20.78125 -17.546875 C 21.789062 -16.304688 22.492188 -14.84375 22.890625 -13.15625 L 17.96875 -13.15625 C 17.5625 -14.320312 16.847656 -15.238281 15.828125 -15.90625 C 14.804688 -16.582031 13.628906 -16.921875 12.296875 -16.921875 C 11.109375 -16.921875 10.046875 -16.648438 9.109375 -16.109375 C 8.179688 -15.566406 7.457031 -14.8125 6.9375 -13.84375 C 6.414062 -12.882812 6.15625 -11.773438 6.15625 -10.515625 C 6.15625 -9.253906 6.414062 -8.140625 6.9375 -7.171875 C 7.457031 -6.210938 8.175781 -5.460938 9.09375 -4.921875 C 10.019531 -4.378906 11.078125 -4.109375 12.265625 -4.109375 C 13.640625 -4.109375 14.847656 -4.460938 15.890625 -5.171875 C 16.929688 -5.890625 17.675781 -6.847656 18.125 -8.046875 L 23.046875 -8.046875 C 22.703125 -6.347656 22.019531 -4.863281 21 -3.59375 C 19.976562 -2.320312 18.710938 -1.332031 17.203125 -0.625 C 15.691406 0.0703125 14.015625 0.421875 12.171875 0.421875 Z M 12.171875 0.421875 "/></g></g></g><g fill="#000000" fill-opacity="1"><g transform="translate(138.471778, 285.434834)"><g><path d="M 15.53125 0 L 15.53125 -8.46875 L 7.296875 -8.46875 L 7.296875 0 L 2.53125 0 L 2.53125 -21.03125 L 7.296875 -21.03125 L 7.296875 -12.953125 L 15.53125 -12.953125 L 15.53125 -21.03125 L 20.3125 -21.03125 L 20.3125 0 Z M 15.53125 0 "/></g></g></g><g fill="#000000" fill-opacity="1"><g transform="translate(161.899072, 285.434834)"><g><path d="M 2.53125 0 L 2.53125 -21.03125 L 6.578125 -21.03125 L 15.859375 -8.234375 L 15.859375 -21.03125 L 20.609375 -21.03125 L 20.609375 0 L 16.5625 0 L 7.265625 -12.890625 L 7.265625 0 Z M 2.53125 0 "/></g></g></g><g fill="#000000" fill-opacity="1"><g transform="translate(185.626707, 285.434834)"><g><path d="M 12.5 0.421875 C 10.3125 0.421875 8.367188 -0.0390625 6.671875 -0.96875 C 4.984375 -1.90625 3.664062 -3.191406 2.71875 -4.828125 C 1.769531 -6.472656 1.296875 -8.367188 1.296875 -10.515625 C 1.296875 -12.660156 1.769531 -14.550781 2.71875 -16.1875 C 3.664062 -17.832031 4.984375 -19.117188 6.671875 -20.046875 C 8.367188 -20.984375 10.3125 -21.453125 12.5 -21.453125 C 14.707031 -21.453125 16.648438 -20.984375 18.328125 -20.046875 C 20.015625 -19.117188 21.335938 -17.832031 22.296875 -16.1875 C 23.253906 -14.550781 23.734375 -12.660156 23.734375 -10.515625 C 23.734375 -8.367188 23.253906 -6.472656 22.296875 -4.828125 C 21.335938 -3.191406 20.015625 -1.90625 18.328125 -0.96875 C 16.648438 -0.0390625 14.707031 0.421875 12.5 0.421875 Z M 6.15625 -10.515625 C 6.15625 -9.253906 6.425781 -8.140625 6.96875 -7.171875 C 7.507812 -6.210938 8.253906 -5.460938 9.203125 -4.921875 C 10.160156 -4.378906 11.257812 -4.109375 12.5 -4.109375 C 13.757812 -4.109375 14.863281 -4.378906 15.8125 -4.921875 C 16.769531 -5.460938 17.515625 -6.210938 18.046875 -7.171875 C 18.578125 -8.140625 18.84375 -9.253906 18.84375 -10.515625 C 18.84375 -11.773438 18.578125 -12.882812 18.046875 -13.84375 C 17.515625 -14.8125 16.769531 -15.566406 15.8125 -16.109375 C 14.863281 -16.648438 13.757812 -16.921875 12.5 -16.921875 C 11.257812 -16.921875 10.160156 -16.648438 9.203125 -16.109375 C 8.253906 -15.566406 7.507812 -14.8125 6.96875 -13.84375 C 6.425781 -12.882812 6.15625 -11.773438 6.15625 -10.515625 Z M 6.15625 -10.515625 "/></g></g></g><g fill="#000000" fill-opacity="1"><g transform="translate(211.246484, 285.434834)"><g><path d="M 2.53125 0 L 2.53125 -21.03125 L 7.296875 -21.03125 L 7.296875 -4.484375 L 16.5 -4.484375 L 16.5 0 Z M 2.53125 0 "/></g></g></g><g fill="#000000" fill-opacity="1"><g transform="translate(229.147477, 285.434834)"><g><path d="M 12.5 0.421875 C 10.3125 0.421875 8.367188 -0.0390625 6.671875 -0.96875 C 4.984375 -1.90625 3.664062 -3.191406 2.71875 -4.828125 C 1.769531 -6.472656 1.296875 -8.367188 1.296875 -10.515625 C 1.296875 -12.660156 1.769531 -14.550781 2.71875 -16.1875 C 3.664062 -17.832031 4.984375 -19.117188 6.671875 -20.046875 C 8.367188 -20.984375 10.3125 -21.453125 12.5 -21.453125 C 14.707031 -21.453125 16.648438 -20.984375 18.328125 -20.046875 C 20.015625 -19.117188 21.335938 -17.832031 22.296875 -16.1875 C 23.253906 -14.550781 23.734375 -12.660156 23.734375 -10.515625 C 23.734375 -8.367188 23.253906 -6.472656 22.296875 -4.828125 C 21.335938 -3.191406 20.015625 -1.90625 18.328125 -0.96875 C 16.648438 -0.0390625 14.707031 0.421875 12.5 0.421875 Z M 6.15625 -10.515625 C 6.15625 -9.253906 6.425781 -8.140625 6.96875 -7.171875 C 7.507812 -6.210938 8.253906 -5.460938 9.203125 -4.921875 C 10.160156 -4.378906 11.257812 -4.109375 12.5 -4.109375 C 13.757812 -4.109375 14.863281 -4.378906 15.8125 -4.921875 C 16.769531 -5.460938 17.515625 -6.210938 18.046875 -7.171875 C 18.578125 -8.140625 18.84375 -9.253906 18.84375 -10.515625 C 18.84375 -11.773438 18.578125 -12.882812 18.046875 -13.84375 C 17.515625 -14.8125 16.769531 -15.566406 15.8125 -16.109375 C 14.863281 -16.648438 13.757812 -16.921875 12.5 -16.921875 C 11.257812 -16.921875 10.160156 -16.648438 9.203125 -16.109375 C 8.253906 -15.566406 7.507812 -14.8125 6.96875 -13.84375 C 6.425781 -12.882812 6.15625 -11.773438 6.15625 -10.515625 Z M 6.15625 -10.515625 "/></g></g></g><g fill="#000000" fill-opacity="1"><g transform="translate(254.767253, 285.434834)"><g><path d="M 12.3125 0.421875 C 10.175781 0.421875 8.273438 -0.0390625 6.609375 -0.96875 C 4.941406 -1.90625 3.640625 -3.191406 2.703125 -4.828125 C 1.765625 -6.472656 1.296875 -8.367188 1.296875 -10.515625 C 1.296875 -12.660156 1.757812 -14.550781 2.6875 -16.1875 C 3.625 -17.832031 4.914062 -19.117188 6.5625 -20.046875 C 8.21875 -20.984375 10.109375 -21.453125 12.234375 -21.453125 C 13.929688 -21.453125 15.5 -21.148438 16.9375 -20.546875 C 18.382812 -19.953125 19.613281 -19.109375 20.625 -18.015625 C 21.632812 -16.921875 22.351562 -15.632812 22.78125 -14.15625 L 17.640625 -14.15625 C 17.140625 -15.070312 16.421875 -15.785156 15.484375 -16.296875 C 14.554688 -16.804688 13.5 -17.0625 12.3125 -17.0625 C 11.09375 -17.0625 10.007812 -16.78125 9.0625 -16.21875 C 8.125 -15.664062 7.390625 -14.894531 6.859375 -13.90625 C 6.328125 -12.925781 6.0625 -11.796875 6.0625 -10.515625 C 6.0625 -9.253906 6.320312 -8.128906 6.84375 -7.140625 C 7.363281 -6.160156 8.09375 -5.382812 9.03125 -4.8125 C 9.976562 -4.25 11.09375 -3.96875 12.375 -3.96875 C 13.914062 -3.96875 15.195312 -4.359375 16.21875 -5.140625 C 17.238281 -5.921875 17.898438 -6.953125 18.203125 -8.234375 L 11.390625 -8.234375 L 11.390625 -11.921875 L 23.25 -11.921875 C 23.375 -10.117188 23.203125 -8.46875 22.734375 -6.96875 C 22.265625 -5.46875 21.539062 -4.160156 20.5625 -3.046875 C 19.59375 -1.929688 18.410156 -1.070312 17.015625 -0.46875 C 15.628906 0.125 14.0625 0.421875 12.3125 0.421875 Z M 12.3125 0.421875 "/></g></g></g><g fill="#000000" fill-opacity="1"><g transform="translate(279.876482, 285.434834)"><g><path d="M 8.015625 0 L 8.015625 -7.359375 L 0.265625 -21.03125 L 5.703125 -21.03125 L 8.328125 -16.171875 L 10.421875 -12.34375 L 12.5 -16.171875 L 15.078125 -21.03125 L 20.515625 -21.03125 L 12.796875 -7.421875 L 12.796875 0 Z M 8.015625 0 "/></g></g></g></svg>